<svg xmlns="http://www.w3.org/2000/svg" width="18" height="18" viewBox="0 0 18 18">
  <g id="classify-icon" transform="translate(-397 -88)">
    <g id="classify-icon-2" data-name="classify-icon" transform="translate(392 83)">
      <rect id="矩形_24" data-name="矩形 24" width="2" height="6" transform="translate(5 5)" fill="currentColor"/>
      <rect id="矩形_24-2" data-name="矩形 24" width="6" height="2" transform="translate(7 5)" fill="currentColor"/>
      <rect id="矩形_24-3" data-name="矩形 24" width="2" height="6" transform="translate(11 7)" fill="currentColor"/>
      <rect id="矩形_24-4" data-name="矩形 24" width="6" height="2" transform="translate(5 11)" fill="currentColor"/>
    </g>
    <g id="classify-icon-3" data-name="classify-icon" transform="translate(402 83)">
      <rect id="矩形_24-5" data-name="矩形 24" width="2" height="6" transform="translate(5 5)" fill="currentColor"/>
      <rect id="矩形_24-6" data-name="矩形 24" width="6" height="2" transform="translate(7 5)" fill="currentColor"/>
      <rect id="矩形_24-7" data-name="矩形 24" width="2" height="6" transform="translate(11 7)" fill="currentColor"/>
      <rect id="矩形_24-8" data-name="矩形 24" width="6" height="2" transform="translate(5 11)" fill="currentColor"/>
    </g>
    <g id="classify-icon-4" data-name="classify-icon" transform="translate(392 93)">
      <rect id="矩形_24-9" data-name="矩形 24" width="2" height="6" transform="translate(5 5)" fill="currentColor"/>
      <rect id="矩形_24-10" data-name="矩形 24" width="6" height="2" transform="translate(7 5)" fill="currentColor"/>
      <rect id="矩形_24-11" data-name="矩形 24" width="2" height="6" transform="translate(11 7)" fill="currentColor"/>
      <rect id="矩形_24-12" data-name="矩形 24" width="6" height="2" transform="translate(5 11)" fill="currentColor"/>
    </g>
    <g id="classify-icon-5" data-name="classify-icon" transform="translate(402 93)">
      <rect id="矩形_24-13" data-name="矩形 24" width="2" height="6" transform="translate(5 5)" fill="currentColor"/>
      <rect id="矩形_24-14" data-name="矩形 24" width="6" height="2" transform="translate(7 5)" fill="currentColor"/>
      <rect id="矩形_24-15" data-name="矩形 24" width="2" height="4" transform="translate(11 7)" fill="currentColor"/>
      <rect id="矩形_24-16" data-name="矩形 24" width="6" height="2" transform="translate(5 11)" fill="currentColor"/>
    </g>
  </g>
</svg>
