<svg xmlns="http://www.w3.org/2000/svg" width="21" height="19" viewBox="0 0 21 19">
  <g id="update" transform="translate(-146.818 -70)">
    <rect id="矩形_87" data-name="矩形 87" width="2" height="2" transform="translate(150.818 83)" fill="currentColor"/>
    <rect id="矩形_101" data-name="矩形 101" width="2" height="2" transform="translate(163.818 74)" fill="currentColor"/>
    <rect id="矩形_103" data-name="矩形 103" width="2" height="2" transform="translate(150.818 74)" fill="currentColor"/>
    <rect id="矩形_104" data-name="矩形 104" width="2" height="3" transform="translate(163.818 82)" fill="currentColor"/>
    <rect id="矩形_81" data-name="矩形 81" width="2" height="2" transform="translate(152.818 72)" fill="currentColor"/>
    <rect id="矩形_88" data-name="矩形 88" width="2" height="2" transform="translate(152.818 85)" fill="currentColor"/>
    <rect id="矩形_83" data-name="矩形 83" width="2" height="2" transform="translate(161.818 72)" fill="currentColor"/>
    <rect id="矩形_97" data-name="矩形 97" width="1" height="2" transform="translate(151.818 80) rotate(180)" fill="currentColor"/>
    <rect id="矩形_98" data-name="矩形 98" width="1" height="2" transform="translate(148.818 80) rotate(180)" fill="currentColor"/>
    <rect id="矩形_102" data-name="矩形 102" width="1" height="2" transform="translate(147.818 81) rotate(180)" fill="currentColor"/>
    <rect id="矩形_96" data-name="矩形 96" width="1" height="2" transform="translate(152.818 81) rotate(180)" fill="currentColor"/>
    <rect id="矩形_90" data-name="矩形 90" width="2" height="2" transform="translate(161.818 85)" fill="currentColor"/>
    <rect id="矩形_85" data-name="矩形 85" width="2" height="6" transform="translate(165.818 76)" fill="currentColor"/>
    <rect id="矩形_86" data-name="矩形 86" width="2" height="6" transform="translate(148.818 77)" fill="currentColor"/>
    <rect id="矩形_82" data-name="矩形 82" width="7" height="2" transform="translate(154.818 70)" fill="currentColor"/>
    <rect id="矩形_82-2" data-name="矩形 82" width="7.435" height="1.652" transform="translate(158.97 73.304) rotate(90)" fill="currentColor"/>
    <rect id="矩形_82-3" data-name="矩形 82" width="4.957" height="1.652" transform="translate(163.926 80.739) rotate(180)" fill="currentColor"/>
    <rect id="矩形_91" data-name="矩形 91" width="7" height="2" transform="translate(154.818 87)" fill="currentColor"/>
  </g>
</svg>
